<svg width="370" height="205" viewBox="0 0 370 205" fill="none" xmlns="http://www.w3.org/2000/svg">
<g opacity="0.2">
<path d="M19.4775 90.7544C19.4986 90.5374 19.5226 90.3198 19.5598 90.1086C19.5936 89.8952 19.6359 89.6951 19.6842 89.4638C19.7773 89.0139 19.8641 88.5623 19.9168 88.1052C19.9657 87.7058 20.0244 87.2956 20.1045 86.8872C20.1852 86.4817 20.278 86.0769 20.4052 85.6955C20.5113 85.3601 20.2955 85.1107 20.0185 85.0261C19.7415 84.9415 19.4051 85.0304 19.2948 85.3756C19.0231 86.2198 18.8498 87.093 18.7042 87.9699L18.4962 89.2848C18.4624 89.4983 18.4227 89.7429 18.3975 89.9697C18.3699 90.2 18.3511 90.4286 18.3322 90.6572C18.302 91.0289 18.5823 91.2239 18.8695 91.2375C19.1562 91.2482 19.4493 91.0898 19.4775 90.7544Z" fill="#161920"/>
<path d="M21.9567 81.8173C22.1303 81.3969 22.3236 80.9847 22.5104 80.5707C22.6973 80.1568 22.8871 79.7423 23.0475 79.3154C23.1915 78.9428 23.3487 78.5615 23.5267 78.1793C23.7024 77.8005 23.8884 77.4287 24.0933 77.0772C24.4547 76.4647 23.436 75.9052 23.0758 76.5235C22.8551 76.902 22.6511 77.2892 22.4568 77.6806C22.262 78.0691 22.0775 78.4796 21.8987 78.889L21.6377 79.5092L21.3859 80.1306L20.8882 81.3723C20.7457 81.7057 20.955 81.9833 21.2237 82.0875C21.4907 82.198 21.8212 82.1403 21.9567 81.8173Z" fill="#161920"/>
<path d="M26.3336 73.5146C26.5699 73.1241 26.8224 72.7395 27.0685 72.3531C27.3187 71.972 27.5545 71.5786 27.7747 71.1822C27.8728 71.0074 27.967 70.8272 28.0743 70.6536C28.1817 70.4799 28.2919 70.3057 28.4027 70.1344C28.6232 69.7859 28.8827 69.469 29.1381 69.1618C29.3695 68.9012 29.273 68.5869 29.0533 68.3953C28.8371 68.206 28.4866 68.1445 28.243 68.4195C27.955 68.7599 27.6682 69.1061 27.4187 69.4751C27.2923 69.6585 27.1635 69.8453 27.0405 70.031L26.6892 70.6026C26.4506 70.9815 26.2419 71.3757 26.0102 71.7593C25.7912 72.1464 25.5659 72.5318 25.3365 72.9119C24.9734 73.5308 25.9734 74.1179 26.3336 73.5146Z" fill="#161920"/>
<path d="M32.1814 66.3893L32.715 65.9865L32.9818 65.7852L33.266 65.5804C33.6418 65.307 34.0095 65.0232 34.3544 64.7138C34.9594 64.1683 35.61 63.6109 36.2893 63.1711C36.8834 62.7866 36.2309 61.8266 35.6258 62.2161C34.888 62.6943 34.2034 63.2461 33.5233 63.8061L32.5038 64.6415C32.1603 64.9117 31.808 65.2135 31.453 65.4859C30.8894 65.9665 31.6677 66.8333 32.1814 66.3893Z" fill="#161920"/>
<path d="M39.8958 61.069C40.6563 60.6464 41.4967 60.3585 42.3204 59.9837C43.0445 59.6521 43.8486 59.3472 44.6377 59.1351C44.9852 59.0411 45.0716 58.7124 44.9823 58.4356C44.893 58.1588 44.6366 57.9322 44.2973 58.0216C43.4683 58.2444 42.6303 58.5289 41.7936 58.8672C41.3775 59.0403 40.9597 59.2199 40.5515 59.4186C40.1399 59.6149 39.734 59.8251 39.3338 60.0493C39.0036 60.2329 39.0071 60.5773 39.1566 60.8245C39.3072 61.0775 39.612 61.2287 39.8958 61.069Z" fill="#161920"/>
<path d="M48.6273 57.8975C49.0088 57.8089 49.422 57.7923 49.856 57.7897L50.2057 57.7853C50.3252 57.7833 50.447 57.7778 50.5653 57.77C50.8049 57.7538 51.0399 57.7295 51.2698 57.6942C52.0848 57.5701 52.9224 57.4387 53.7057 57.4918C54.0483 57.5127 54.2388 57.242 54.2575 56.9504C54.2768 56.6616 54.1087 56.349 53.7361 56.3278C53.281 56.2985 52.8256 56.3143 52.3822 56.3457C51.9365 56.3806 51.5028 56.4312 51.0709 56.4755C50.8566 56.4987 50.6418 56.5191 50.4294 56.5361C50.2111 56.5541 50.0154 56.5649 49.7776 56.5747C49.3181 56.6002 48.8389 56.6476 48.3627 56.7574C47.9731 56.8504 47.8934 57.1988 47.9908 57.4711C48.0928 57.7514 48.3407 57.9647 48.6273 57.8975Z" fill="#161920"/>
<path d="M57.7503 58.2514C58.1875 58.3591 58.6195 58.4858 59.0496 58.6189C59.4821 58.7485 59.9093 58.8821 60.3442 58.9933C60.7261 59.0936 61.1195 59.2068 61.4982 59.3528C61.8792 59.4953 62.2415 59.6804 62.5858 59.866C62.8789 60.0495 63.1719 59.8911 63.3185 59.6409C63.465 59.3906 63.4576 59.0411 63.141 58.8442C62.9427 58.7324 62.7402 58.6305 62.5378 58.5285C62.3354 58.4266 62.1277 58.3286 61.9171 58.2462C61.4971 58.0722 61.0681 57.9299 60.6374 57.794C60.2021 57.6649 59.7684 57.5445 59.3317 57.4397C58.8963 57.3257 58.4578 57.2272 58.0235 57.119C57.6686 57.0344 57.4286 57.2816 57.3661 57.5636C57.3047 57.8514 57.4139 58.1693 57.7503 58.2514Z" fill="#161920"/>
<path d="M65.8499 62.378C66.1866 62.6791 66.5285 62.9761 66.853 63.2915C67.0181 63.4487 67.1879 63.5989 67.3548 63.7497C67.5193 63.904 67.692 64.0537 67.8664 64.197C68.181 64.4454 68.4785 64.7299 68.7784 65.0111C69.0736 65.2991 69.3485 65.6061 69.6003 65.9175C70.0252 66.4745 70.9361 65.744 70.4923 65.1667C70.213 64.8216 69.9233 64.4845 69.6099 64.164C69.2941 63.8469 68.9783 63.5298 68.6399 63.2351L68.1397 62.7856L67.6245 62.351C67.2884 62.0528 66.9307 61.7828 66.5975 61.4841C66.3187 61.2499 65.9901 61.3642 65.8091 61.591C65.6292 61.8237 65.5849 62.1532 65.8499 62.378Z" fill="#161920"/>
<path d="M71.9768 69.367C72.2327 69.7466 72.4863 70.1296 72.737 70.5132C72.9901 70.8934 73.2495 71.2753 73.5378 71.6367C74.0378 72.2722 74.5513 72.9621 74.9366 73.6707C75.107 73.9798 75.4416 73.9903 75.6925 73.846C75.9427 73.6987 76.1145 73.3927 75.94 73.0784C75.5183 72.3048 75.0131 71.5803 74.4969 70.8609L73.7114 69.7855C73.453 69.4244 73.1837 69.0684 72.9392 68.7016C72.5202 68.1134 71.5727 68.794 71.9768 69.367Z" fill="#161920"/>
<path d="M76.7906 77.4469C77.0008 77.8533 77.1895 78.2729 77.3916 78.6838C77.5855 79.0994 77.7957 79.5058 78.0221 79.9031C78.2269 80.2506 78.4171 80.6158 78.6021 80.9851C78.7762 81.3595 78.945 81.7379 79.0636 82.12C79.2818 82.7858 80.3841 82.4114 80.1575 81.7172C80.0218 81.2934 79.8498 80.8826 79.6725 80.4759C79.4866 80.0708 79.2926 79.6702 79.0846 79.2754C78.8819 78.8765 78.6635 78.4897 78.4556 78.0949C78.2396 77.7046 78.0351 77.3121 77.83 76.9166C77.6689 76.5938 77.3257 76.5699 77.0669 76.7038C76.8086 76.8405 76.6312 77.1327 76.7906 77.4469Z" fill="#161920"/>
<path d="M80.2429 86.1909C80.5502 87.0705 80.8338 87.9667 81.2522 88.8009C81.4367 89.1673 81.6228 89.5423 81.7957 89.926C81.9719 90.3119 82.1304 90.6833 82.2432 91.0665C82.346 91.3976 82.6674 91.4796 82.9467 91.3898C83.2231 91.3006 83.4569 91.0365 83.3445 90.6863C83.2819 90.4704 83.2019 90.2578 83.1226 90.0482C83.0432 89.8385 82.9603 89.6415 82.8763 89.4387C82.7059 89.0367 82.5269 88.6362 82.3484 88.2387C81.9903 87.4379 81.6322 86.6371 81.3407 85.8084C81.1087 85.1332 80.004 85.5111 80.2429 86.1909Z" fill="#161920"/>
<path d="M83.2304 95.1598C83.485 96.0615 83.7309 96.995 84.1798 97.8473C84.3872 98.2393 84.5708 98.5548 84.7148 98.929C84.8612 99.2997 84.9722 99.6892 85.0509 100.082C85.1876 100.776 86.3255 100.523 86.186 99.8153C86.099 99.3791 85.9808 98.937 85.8182 98.4974C85.74 98.2785 85.6469 98.0595 85.5451 97.8422L85.2651 97.2602C85.086 96.8748 84.9144 96.482 84.7613 96.0765C84.6089 95.674 84.4692 95.26 84.3497 94.8421C84.1616 94.1615 83.036 94.4624 83.2304 95.1598Z" fill="#161920"/>
<path d="M86.1369 104.243C86.288 104.67 86.4184 105.097 86.5361 105.522L86.7072 106.161C86.7658 106.371 86.8186 106.583 86.8874 106.816C87.0088 107.212 87.1353 107.62 87.2617 108.027C87.3848 108.433 87.5021 108.839 87.5945 109.241C87.7629 109.943 88.8839 109.619 88.7195 108.937C88.6237 108.518 88.5111 108.105 88.3979 107.688C88.2824 107.276 88.1693 106.86 88.0654 106.445C87.9586 106.015 87.829 105.56 87.686 105.129C87.5423 104.695 87.386 104.272 87.2353 103.848C86.9838 103.165 85.8972 103.59 86.1369 104.243Z" fill="#161920"/>
<path d="M88.5822 113.369C88.7033 113.811 88.8163 114.257 88.9252 114.698C89.0439 115.143 89.1694 115.608 89.3431 116.042C89.4922 116.427 89.6488 116.82 89.7973 117.217C89.94 117.616 90.085 118.011 90.1943 118.407C90.3996 119.099 91.5009 118.719 91.3023 118.046C91.1863 117.631 91.0477 117.222 90.9114 116.811C90.7699 116.403 90.6279 115.992 90.4887 115.581C90.349 115.167 90.2173 114.764 90.0869 114.336C89.9594 113.908 89.8267 113.483 89.7084 113.056C89.5089 112.363 88.3912 112.689 88.5822 113.369Z" fill="#161920"/>
<path d="M91.4508 122.487C91.7836 123.359 92.095 124.244 92.532 125.065C92.9166 125.786 93.3072 126.554 93.5859 127.316C93.8289 127.986 94.9109 127.553 94.6674 126.88C94.0692 125.237 93.1685 123.704 92.5414 122.067C92.2856 121.409 91.1928 121.817 91.4508 122.487Z" fill="#161920"/>
<path d="M95.0075 131.331C95.3802 132.192 95.7383 133.071 96.2476 133.863C96.6965 134.56 97.1698 135.29 97.57 136.014C97.745 136.331 98.0843 136.335 98.3329 136.179C98.5786 136.024 98.7388 135.72 98.5723 135.416C97.755 133.927 96.7707 132.473 96.0776 130.867C95.7998 130.218 94.7206 130.666 95.0075 131.331Z" fill="#161920"/>
<path d="M99.9784 139.617C100.592 140.329 101.192 141.048 101.869 141.667C102.164 141.94 102.465 142.227 102.747 142.527C103.036 142.825 103.282 143.137 103.547 143.47C103.997 144.052 104.869 143.275 104.451 142.735C104.197 142.415 103.909 142.042 103.613 141.718C103.316 141.385 103.006 141.067 102.693 140.752C102.066 140.126 101.43 139.517 100.862 138.856C100.409 138.322 99.5061 139.063 99.9784 139.617Z" fill="#161920"/>
<path d="M106.441 146.708C106.806 147.013 107.168 147.324 107.542 147.615C107.731 147.755 107.925 147.895 108.119 148.029C108.313 148.165 108.514 148.291 108.721 148.401C109.084 148.605 109.453 148.812 109.823 149.02C110.193 149.228 110.551 149.453 110.895 149.671C111.503 150.07 112.09 149.06 111.504 148.678C111.141 148.445 110.782 148.211 110.413 147.991C110.039 147.776 109.681 147.539 109.307 147.32C108.937 147.094 108.581 146.851 108.22 146.611C107.872 146.358 107.523 146.101 107.193 145.822C106.682 145.36 105.888 146.215 106.441 146.708Z" fill="#161920"/>
<path d="M114.531 151.932C115.363 152.36 116.185 152.816 117.061 153.13C117.444 153.269 117.838 153.415 118.225 153.575C118.42 153.654 118.61 153.738 118.8 153.821C118.99 153.907 119.189 153.992 119.374 154.082C119.539 154.161 119.694 154.155 119.817 154.093C119.942 154.027 120.036 153.91 120.091 153.773C120.145 153.637 120.158 153.487 120.12 153.35C120.084 153.21 119.998 153.089 119.845 153.013C119.657 152.921 119.47 152.84 119.273 152.746C119.075 152.652 118.877 152.561 118.678 152.474C118.276 152.299 117.875 152.131 117.468 151.963C116.658 151.63 115.846 151.292 115.068 150.893C114.445 150.566 113.894 151.596 114.531 151.932Z" fill="#161920"/>
<path d="M123.459 155.579C123.921 155.676 124.385 155.781 124.852 155.856C125.087 155.895 125.319 155.929 125.555 155.958C125.788 155.985 126.024 155.997 126.259 156.005C126.673 156.022 127.096 156.027 127.517 156.051C127.938 156.075 128.36 156.099 128.763 156.153C129.477 156.237 129.567 155.074 128.868 154.99C128.44 154.931 128.009 154.9 127.579 154.863C127.148 154.832 126.716 154.801 126.284 154.767C125.85 154.74 125.419 154.694 124.99 154.645C124.561 154.593 124.134 154.522 123.709 154.433C123.029 154.279 122.741 155.411 123.459 155.579Z" fill="#161920"/>
<path d="M132.99 156.64C133.451 156.668 133.915 156.698 134.379 156.726C134.836 156.752 135.32 156.761 135.788 156.728C136.615 156.667 137.483 156.587 138.307 156.572C138.672 156.565 138.833 156.267 138.81 155.977C138.789 155.684 138.595 155.403 138.248 155.407C137.397 155.421 136.543 155.472 135.679 155.497C135.247 155.509 134.817 155.514 134.373 155.512C133.932 155.51 133.492 155.499 133.053 155.475C132.344 155.432 132.275 156.597 132.99 156.64Z" fill="#161920"/>
<path d="M142.577 156.259C143.438 156.138 144.346 156.17 145.273 156.052C146.104 155.946 146.978 155.834 147.805 155.726C148.173 155.679 148.298 155.361 148.24 155.075C148.185 154.789 147.958 154.529 147.625 154.572C147.212 154.622 146.805 154.67 146.387 154.712C145.96 154.749 145.533 154.789 145.103 154.827C144.23 154.9 143.328 154.975 142.42 155.101C142.044 155.156 141.926 155.476 141.975 155.763C142 155.908 142.068 156.042 142.179 156.135C142.282 156.232 142.414 156.282 142.577 156.259Z" fill="#161920"/>
<path d="M152.032 154.804C152.471 154.657 152.913 154.512 153.352 154.364C153.791 154.213 154.224 154.055 154.645 153.86C155.386 153.522 156.177 153.18 156.956 152.946C157.641 152.739 157.264 151.636 156.584 151.839C155.751 152.09 154.935 152.409 154.121 152.74C153.306 153.068 152.486 153.412 151.659 153.694C150.993 153.922 151.345 155.036 152.032 154.804Z" fill="#161920"/>
<path d="M161.035 151.708C161.258 151.623 161.467 151.544 161.678 151.47L162.319 151.25C162.749 151.105 163.182 150.955 163.602 150.775C164.347 150.458 165.154 150.149 165.943 149.922C166.292 149.822 166.372 149.488 166.274 149.213C166.176 148.938 165.92 148.714 165.585 148.809C164.761 149.046 163.938 149.33 163.108 149.64C162.694 149.795 162.276 149.957 161.862 150.123L160.618 150.618C159.959 150.868 160.359 151.964 161.035 151.708Z" fill="#161920"/>
<path d="M169.986 148.341C170.813 147.888 171.635 147.448 172.384 146.914C173.041 146.439 173.755 145.959 174.478 145.592C175.114 145.272 174.555 144.249 173.918 144.569C173.138 144.966 172.392 145.433 171.655 145.917C170.915 146.399 170.19 146.898 169.426 147.319C169.118 147.489 169.099 147.826 169.235 148.084C169.369 148.343 169.669 148.516 169.986 148.341Z" fill="#161920"/>
<path d="M178.29 143.749C179.107 143.306 179.948 142.895 180.708 142.362C181.375 141.891 182.091 141.405 182.808 141.024C183.127 140.858 183.136 140.517 182.989 140.267C182.841 140.013 182.543 139.849 182.226 140.012C180.696 140.825 179.28 141.887 177.734 142.725C177.109 143.061 177.664 144.088 178.29 143.749Z" fill="#161920"/>
<path d="M186.56 138.99C186.955 138.74 187.35 138.487 187.744 138.228C188.134 137.97 188.508 137.685 188.866 137.382C189.18 137.115 189.493 136.829 189.82 136.565C190.15 136.301 190.472 136.032 190.807 135.796C191.398 135.376 190.668 134.464 190.099 134.871C189.748 135.118 189.41 135.388 189.069 135.651C188.727 135.915 188.395 136.198 188.05 136.462C187.706 136.73 187.37 137.007 187.015 137.262C186.663 137.519 186.308 137.776 185.939 138.009C185.334 138.381 185.948 139.372 186.56 138.99Z" fill="#161920"/>
<path d="M194.237 133.269C194.949 132.673 195.69 132.101 196.331 131.435C196.896 130.849 197.507 130.245 198.151 129.758C198.715 129.332 197.991 128.418 197.415 128.85C196.013 129.909 194.836 131.246 193.489 132.373C192.944 132.828 193.687 133.729 194.237 133.269Z" fill="#161920"/>
<path d="M201.546 127.181C202.248 126.566 202.974 125.961 203.582 125.247C204.114 124.62 204.677 123.962 205.268 123.392C205.785 122.888 204.933 122.089 204.431 122.579C203.193 123.771 202.095 125.15 200.777 126.304C200.243 126.766 200.999 127.656 201.546 127.181Z" fill="#161920"/>
<path d="M208.34 120.505C209.002 119.868 209.709 119.261 210.311 118.548C210.841 117.921 211.407 117.268 211.998 116.696C212.258 116.445 212.174 116.116 211.962 115.917C211.749 115.718 211.414 115.641 211.161 115.885C209.928 117.074 208.804 118.436 207.53 119.665C207.013 120.167 207.832 120.996 208.34 120.505Z" fill="#161920"/>
<path d="M214.913 113.506C215.46 112.738 216.013 111.966 216.427 111.13C216.792 110.397 217.18 109.629 217.639 108.962C218.042 108.377 217.065 107.741 216.655 108.333C216.159 109.058 215.738 109.826 215.313 110.592C214.891 111.357 214.463 112.12 213.962 112.829C213.759 113.117 213.888 113.428 214.123 113.602C214.357 113.776 214.704 113.805 214.913 113.506Z" fill="#161920"/>
<path d="M220.14 105.557C220.657 104.785 221.211 104.025 221.629 103.191C221.997 102.458 222.394 101.691 222.84 101.005C223.23 100.399 222.224 99.8103 221.843 100.4C220.902 101.844 220.153 103.446 219.172 104.904C218.777 105.496 219.742 106.15 220.14 105.557Z" fill="#161920"/>
<path d="M225.092 97.3587C225.515 96.5213 225.953 95.684 226.246 94.7966C226.504 94.0182 226.784 93.2023 227.134 92.4689C227.445 91.8272 226.377 91.3551 226.066 91.9968C225.311 93.5671 224.834 95.2728 224.05 96.8307C223.892 97.1461 224.067 97.4362 224.327 97.5721C224.587 97.7079 224.933 97.6833 225.092 97.3587Z" fill="#161920"/>
<path d="M229.052 88.6905C229.254 88.2588 229.439 87.8211 229.614 87.3765C229.703 87.1553 229.773 86.9288 229.847 86.7047C229.917 86.4782 229.987 86.2517 230.032 86.0181C230.122 85.6109 230.212 85.1945 230.303 84.7782C230.4 84.3636 230.494 83.9524 230.609 83.5553C230.713 83.2083 230.469 82.9645 230.186 82.8989C229.901 82.831 229.58 82.9379 229.479 83.2722C229.42 83.4785 229.364 83.6843 229.311 83.8925L229.149 84.5145C229.05 84.9326 228.935 85.3447 228.83 85.7639C228.712 86.1766 228.597 86.5946 228.458 87.0054C228.318 87.4133 228.172 87.8224 227.989 88.2115C227.703 88.8425 228.748 89.3641 229.052 88.6905Z" fill="#161920"/>
<path d="M231.61 79.3734C231.667 78.9066 231.745 78.4416 231.793 77.9735C231.844 77.5048 231.876 77.0366 231.867 76.5675C231.852 75.7455 231.841 74.8778 231.915 74.0657C231.977 73.3488 230.813 73.2913 230.751 73.9961C230.671 74.8573 230.659 75.7294 230.633 76.6014C230.624 77.038 230.606 77.4734 230.579 77.9104C230.556 78.3469 230.51 78.7787 230.456 79.2121C230.35 79.9073 231.501 80.0935 231.61 79.3734Z" fill="#161920"/>
<path d="M232.17 69.7813C232.151 69.3109 232.167 68.834 232.113 68.3645C232.07 67.8929 232.015 67.4235 231.926 66.9608C231.859 66.5537 231.738 66.1421 231.661 65.7251C231.575 65.3098 231.507 64.894 231.46 64.483C231.343 63.7647 230.2 63.991 230.311 64.6774C230.358 65.1034 230.422 65.529 230.497 65.9524C230.573 66.3757 230.666 66.7986 230.719 67.2293L230.911 68.5182L230.955 68.8426L230.979 69.1679C230.991 69.3846 231.003 69.6013 231.009 69.8191C231.027 70.5204 232.191 70.5121 232.17 69.7813Z" fill="#161920"/>
<path d="M230.69 60.2487C230.55 59.7988 230.405 59.3467 230.264 58.894C230.191 58.6682 230.115 58.4458 230.033 58.2246C229.943 58.005 229.84 57.794 229.733 57.5836C229.542 57.2155 229.352 56.8352 229.176 56.4492C228.997 56.0638 228.796 55.6915 228.642 55.3104C228.362 54.6383 227.314 55.1523 227.581 55.7937C227.664 55.9907 227.75 56.1871 227.842 56.3824C227.933 56.5777 228.027 56.7696 228.108 56.97C228.277 57.3663 228.457 57.7575 228.638 58.1516C228.727 58.3504 228.83 58.5405 228.905 58.745L229.139 59.3508C229.292 59.7563 229.443 60.1652 229.573 60.5779C229.747 61.2492 230.875 60.957 230.69 60.2487Z" fill="#161920"/>
<path d="M226.8 51.413L226.436 50.8022L226.255 50.4982L226.055 50.2068C225.785 49.8179 225.502 49.4375 225.197 49.0795C224.937 48.7576 224.631 48.4597 224.35 48.1388C224.07 47.8208 223.801 47.4948 223.557 47.1639C223.329 46.8809 222.991 46.9339 222.77 47.1235C222.549 47.3131 222.441 47.6369 222.658 47.91C222.911 48.2572 223.176 48.593 223.455 48.9202L223.876 49.4119C224.021 49.5729 224.145 49.75 224.282 49.9156L225.085 50.9397C225.222 51.1082 225.341 51.2893 225.46 51.4704C225.578 51.6514 225.695 51.8359 225.806 52.0216C226.166 52.618 227.178 52.039 226.8 51.413Z" fill="#161920"/>
<path d="M220.769 43.8798C220.431 43.5522 220.079 43.236 219.727 42.9198C219.374 42.6071 219.016 42.292 218.626 42.0374C217.944 41.5779 217.227 41.0922 216.593 40.5695C216.031 40.1108 215.341 41.0537 215.884 41.4949C216.547 42.042 217.247 42.549 217.949 43.0676C218.304 43.3231 218.633 43.6016 218.973 43.8721C219.308 44.1494 219.648 44.4199 219.961 44.7225C220.453 45.2216 221.283 44.4016 220.769 43.8798Z" fill="#161920"/>
<path d="M213.141 37.9869C212.323 37.5056 211.487 37.0248 210.584 36.7249C210.188 36.5973 209.779 36.4661 209.374 36.3344C208.972 36.2079 208.573 36.0687 208.191 35.9175C207.856 35.7839 207.592 35.9969 207.495 36.2706C207.398 36.5471 207.469 36.8844 207.794 37.0138C208.193 37.1738 208.599 37.3205 209.003 37.4615L209.605 37.6755L210.205 37.8987C210.604 38.053 211.004 38.2158 211.398 38.3948C211.789 38.5744 212.174 38.7701 212.546 38.9894C212.849 39.1649 213.147 39.0145 213.302 38.7627C213.46 38.5223 213.458 38.1717 213.141 37.9869Z" fill="#161920"/>
<path d="M204.165 34.4492C203.261 34.2036 202.352 33.9377 201.426 33.8282C200.611 33.7334 199.754 33.6255 198.96 33.4367C198.263 33.2711 198.04 34.4149 198.728 34.5793C200.414 34.9802 202.172 35.1182 203.858 35.5762C204.538 35.7631 204.864 34.6414 204.165 34.4492Z" fill="#161920"/>
<path d="M194.819 32.438C193.891 32.2868 192.947 32.1177 191.997 32.1448C191.58 32.1591 191.154 32.1722 190.726 32.1888C190.302 32.1984 189.871 32.2155 189.467 32.2033C188.751 32.1854 188.769 33.3549 189.477 33.3716C189.916 33.3829 190.332 33.3778 190.76 33.3763C191.185 33.3724 191.613 33.3738 192.043 33.3781C192.903 33.3953 193.77 33.4472 194.627 33.5881C195.322 33.7092 195.538 32.5605 194.819 32.438Z" fill="#161920"/>
<path d="M185.196 32.1471C184.259 32.2108 183.306 32.2593 182.392 32.4896C181.991 32.5878 181.576 32.6888 181.165 32.7921C180.743 32.8913 180.324 32.987 179.915 33.084C179.554 33.1715 179.462 33.5013 179.551 33.7781C179.638 34.0584 179.89 34.2919 180.216 34.214C180.621 34.121 181.004 34.0412 181.436 33.9519C181.857 33.8648 182.28 33.7771 182.701 33.6901C183.549 33.5206 184.408 33.376 185.278 33.3165C185.976 33.269 185.921 32.1004 185.196 32.1471Z" fill="#161920"/>
<path d="M175.82 34.4433C175.397 34.6268 174.971 34.7959 174.554 34.9633C174.131 35.1347 173.725 35.2941 173.309 35.4823C172.564 35.8149 171.766 36.1546 170.987 36.4008C170.299 36.6235 170.713 37.7167 171.376 37.5019C172.195 37.2421 173.006 36.9268 173.824 36.604C174.673 36.2664 175.477 35.8655 176.284 35.512C176.942 35.2291 176.472 34.1585 175.82 34.4433Z" fill="#161920"/>
<path d="M166.999 38.27C166.245 38.8624 165.53 39.447 164.883 40.0546C164.599 40.3223 164.292 40.5765 163.97 40.8006C163.622 41.0476 163.264 41.2755 162.906 41.4855C162.287 41.8778 162.959 42.8311 163.541 42.4639C163.91 42.2488 164.264 42.0307 164.63 41.7862C165.028 41.5355 165.391 41.2435 165.739 40.9485C166.43 40.3534 167.045 39.719 167.722 39.1896C167.992 38.9755 167.961 38.6426 167.789 38.4028C167.618 38.1688 167.291 38.0399 166.999 38.27Z" fill="#161920"/>
<path d="M159.364 43.9535C159.003 44.257 158.658 44.5815 158.309 44.9007C157.967 45.2246 157.644 45.5717 157.345 45.9323C157.09 46.2574 156.824 46.5876 156.554 46.9097C156.287 47.237 156.006 47.5492 155.72 47.8411C155.221 48.3602 156.092 49.1342 156.582 48.6288C156.885 48.3185 157.178 48.0041 157.462 47.6735C157.754 47.3533 158.031 47.0208 158.319 46.6954C158.611 46.3752 158.891 46.0422 159.197 45.7313C159.5 45.421 159.802 45.1079 160.134 44.8278C160.658 44.373 159.915 43.4723 159.364 43.9535Z" fill="#161920"/>
<path d="M152.77 50.9116C152.166 51.6188 151.534 52.3016 151.009 53.0626C150.777 53.3982 150.536 53.7327 150.284 54.0693C150.031 54.4089 149.765 54.7362 149.492 55.0438C149.019 55.5937 149.938 56.3166 150.393 55.785C150.678 55.463 150.954 55.137 151.221 54.7975C151.494 54.457 151.768 54.1072 152.033 53.7562C152.565 53.0507 153.088 52.3411 153.657 51.6735C154.118 51.1287 153.235 50.3691 152.77 50.9116Z" fill="#161920"/>
<path d="M146.772 58.3599C146.508 58.7467 146.235 59.1324 145.988 59.5337C145.862 59.7321 145.739 59.9328 145.622 60.1353C145.509 60.3401 145.402 60.5496 145.302 60.7608C145.212 60.9462 145.122 61.1344 145.033 61.3255C144.944 61.5166 144.855 61.7078 144.76 61.8971C144.667 62.0859 144.569 62.2729 144.469 62.457C144.373 62.6435 144.274 62.8247 144.17 63.0007C143.801 63.6236 144.835 64.1653 145.192 63.5626C145.408 63.191 145.616 62.8119 145.822 62.4304C146.023 62.0466 146.225 61.6628 146.426 61.2761C146.624 60.887 146.832 60.5079 147.05 60.1271C147.26 59.7445 147.495 59.3783 147.737 59.0167C148.129 58.4373 147.18 57.7593 146.772 58.3599Z" fill="#161920"/>
<path d="M142.068 66.7254C141.868 67.1479 141.672 67.5757 141.481 68.0023C141.294 68.4313 141.127 68.8714 140.988 69.3151C140.872 69.7094 140.752 70.1134 140.616 70.5116C140.484 70.912 140.345 71.3078 140.183 71.6839C139.906 72.3432 140.995 72.7571 141.27 72.1012C141.608 71.3043 141.887 70.4797 142.172 69.6569C142.32 69.2473 142.459 68.8307 142.617 68.4252C142.779 68.0192 142.934 67.6114 143.125 67.2176C143.425 66.581 142.377 66.0721 142.068 66.7254Z" fill="#161920"/>
<path d="M138.503 75.59C138.179 76.4592 137.818 77.3236 137.597 78.2271C137.402 79.0205 137.182 79.8547 136.888 80.6133C136.63 81.2809 137.731 81.6626 137.988 81.0013C138.619 79.3799 138.983 77.6451 139.594 75.9975C139.843 75.3287 138.751 74.9183 138.503 75.59Z" fill="#161920"/>
<path d="M135.329 84.5706C135.038 85.4546 134.715 86.3446 134.552 87.2699C134.483 87.6761 134.408 88.0926 134.329 88.5096C134.248 88.9243 134.163 89.3396 134.06 89.7374C133.885 90.446 135.032 90.6628 135.199 89.9888C135.308 89.5748 135.401 89.1579 135.494 88.7381C135.586 88.3154 135.679 87.8926 135.771 87.4699C135.958 86.621 136.162 85.7688 136.436 84.9361C136.664 84.2654 135.557 83.8878 135.329 84.5706Z" fill="#161920"/>
<path d="M133.274 94.0101L133.235 94.6926L133.184 95.3744C133.148 95.8281 133.12 96.2865 133.121 96.7452C133.121 97.5521 133.082 98.4084 132.946 99.2085C132.827 99.9124 133.981 100.071 134.1 99.367C134.245 98.5051 134.315 97.6219 134.353 96.7327C134.372 96.2881 134.385 95.8417 134.398 95.3953C134.411 94.9489 134.418 94.5007 134.44 94.0584C134.482 93.3725 133.319 93.2636 133.274 94.0101Z" fill="#161920"/>
<path d="M132.234 103.419C132.193 103.889 132.149 104.359 132.127 104.837C132.105 105.315 132.113 105.791 132.162 106.261C132.249 107.087 132.358 107.948 132.372 108.764C132.384 109.482 133.549 109.416 133.535 108.708C133.521 107.841 133.439 106.981 133.387 106.118C133.357 105.686 133.341 105.257 133.338 104.826C133.339 104.394 133.354 103.959 133.393 103.525C133.462 102.825 132.304 102.694 132.234 103.419Z" fill="#161920"/>
<path d="M132.351 112.977C132.355 113.432 132.34 113.897 132.339 114.359C132.335 114.821 132.347 115.287 132.391 115.75C132.47 116.562 132.54 117.425 132.524 118.243C132.516 118.605 132.81 118.776 133.099 118.769C133.391 118.76 133.682 118.578 133.689 118.226C133.706 117.365 133.664 116.494 133.618 115.615L133.552 114.296C133.533 113.853 133.523 113.414 133.518 112.968C133.517 112.605 133.217 112.432 132.927 112.437C132.635 112.445 132.35 112.629 132.351 112.977Z" fill="#161920"/>
<path d="M132.611 122.555C132.674 123.02 132.729 123.477 132.795 123.941C132.863 124.402 132.945 124.863 133.062 125.315C133.269 126.108 133.482 126.949 133.608 127.759C133.722 128.475 134.864 128.237 134.755 127.547C134.627 126.696 134.439 125.847 134.253 124.992C134.162 124.563 134.07 124.134 133.984 123.703C133.901 123.272 133.823 122.837 133.767 122.404C133.681 121.713 132.521 121.82 132.611 122.555Z" fill="#161920"/>
<path d="M134.427 131.988C134.568 132.437 134.725 132.908 134.889 133.341C135.053 133.772 135.222 134.201 135.426 134.618C135.779 135.348 136.131 136.134 136.38 136.911C136.599 137.595 137.694 137.198 137.48 136.523C137.218 135.694 136.881 134.88 136.533 134.068L136.002 132.851C135.828 132.447 135.671 132.054 135.544 131.64C135.441 131.309 135.115 131.219 134.834 131.3C134.55 131.379 134.318 131.637 134.427 131.988Z" fill="#161920"/>
<path d="M137.704 140.97C138.039 141.793 138.275 142.689 138.691 143.542C139.054 144.291 139.456 145.086 139.873 145.836C140.057 146.167 140.4 146.161 140.641 145.997C140.882 145.834 141.033 145.529 140.876 145.241C140.682 144.889 140.499 144.528 140.318 144.149C140.138 143.773 139.964 143.386 139.791 142.988C139.45 142.193 139.122 141.362 138.781 140.525C138.644 140.191 138.308 140.142 138.038 140.248C137.768 140.357 137.569 140.642 137.704 140.97Z" fill="#161920"/>
<path d="M142.285 149.376C142.537 149.723 142.802 150.131 143.07 150.512C143.336 150.895 143.626 151.265 143.935 151.613C144.21 151.918 144.495 152.232 144.767 152.554C145.041 152.873 145.311 153.199 145.548 153.531C145.763 153.823 146.1 153.782 146.325 153.597C146.553 153.413 146.671 153.093 146.464 152.809C146.214 152.458 145.942 152.121 145.67 151.783C145.4 151.442 145.115 151.113 144.843 150.773C144.568 150.433 144.285 150.1 144.02 149.752C143.75 149.406 143.497 149.058 143.227 148.685C143.008 148.388 142.665 148.427 142.435 148.603C142.204 148.786 142.085 149.103 142.285 149.376Z" fill="#161920"/>
<path d="M148.193 156.915L148.676 157.431L149.18 157.934C149.514 158.268 149.876 158.577 150.254 158.858C150.581 159.11 150.941 159.343 151.278 159.602C151.613 159.862 151.965 160.103 152.275 160.373C152.551 160.611 152.876 160.476 153.044 160.246C153.22 160.008 153.246 159.676 152.984 159.448C152.663 159.167 152.313 158.92 151.981 158.648C151.648 158.379 151.299 158.125 150.968 157.85L150.464 157.444C150.296 157.305 150.136 157.159 149.974 157.016C149.811 156.87 149.652 156.727 149.491 156.578C149.336 156.425 149.186 156.271 149.036 156.114C148.557 155.603 147.689 156.383 148.193 156.915Z" fill="#161920"/>
<path d="M155.78 162.907C156.198 163.13 156.622 163.372 157.02 163.574C157.423 163.784 157.832 163.991 158.253 164.173C158.995 164.492 159.771 164.865 160.468 165.294C161.083 165.671 161.647 164.647 161.046 164.28C160.311 163.828 159.531 163.42 158.732 163.034C158.332 162.841 157.927 162.653 157.52 162.467C157.104 162.283 156.732 162.091 156.348 161.889C156.038 161.727 155.745 161.885 155.599 162.138C155.446 162.387 155.454 162.736 155.78 162.907Z" fill="#161920"/>
<path d="M164.382 167.194C165.28 167.471 166.153 167.759 167.023 167.966C167.212 168.011 167.413 168.062 167.619 168.118C167.822 168.175 168.024 168.232 168.23 168.285C168.636 168.402 169.039 168.522 169.423 168.664C170.105 168.905 170.441 167.787 169.782 167.554C169.379 167.407 168.97 167.276 168.558 167.145C168.144 167.015 167.742 166.892 167.298 166.761C166.426 166.515 165.556 166.335 164.724 166.079C164.055 165.872 163.684 166.978 164.382 167.194Z" fill="#161920"/>
<path d="M173.493 170.004C174.404 170.222 175.321 170.456 176.255 170.531C177.076 170.594 177.938 170.665 178.745 170.81C179.458 170.933 179.603 169.775 178.912 169.656C178.064 169.501 177.204 169.406 176.339 169.3C175.906 169.248 175.475 169.187 175.043 169.121C174.613 169.053 174.184 168.971 173.76 168.87C173.077 168.702 172.789 169.834 173.493 170.004Z" fill="#161920"/>
<path d="M182.979 171.448C183.911 171.511 184.853 171.596 185.783 171.525C186.601 171.463 187.462 171.406 188.278 171.44C188.994 171.47 188.996 170.3 188.286 170.272C186.555 170.197 184.8 170.401 183.057 170.283C182.355 170.233 182.256 171.398 182.979 171.448Z" fill="#161920"/>
<path d="M192.525 171.622C193.457 171.607 194.398 171.621 195.32 171.479C196.13 171.359 196.986 171.233 197.804 171.201C198.524 171.171 198.422 170.008 197.718 170.036C195.993 170.104 194.257 170.424 192.504 170.453C191.799 170.466 191.808 171.634 192.525 171.622Z" fill="#161920"/>
<path d="M202.076 170.944C202.542 170.875 203.009 170.812 203.472 170.726C203.934 170.64 204.4 170.535 204.84 170.393C205.619 170.144 206.444 169.886 207.242 169.735C207.944 169.6 207.68 168.463 206.986 168.596C206.134 168.758 205.292 168.992 204.45 169.223C204.028 169.338 203.612 169.451 203.188 169.548C202.763 169.647 202.339 169.729 201.907 169.791C201.558 169.844 201.422 170.152 201.46 170.441C201.501 170.728 201.717 170.995 202.076 170.944Z" fill="#161920"/>
<path d="M211.42 168.946C212.321 168.724 213.238 168.539 214.108 168.218C214.872 167.936 215.687 167.656 216.481 167.488C217.177 167.338 216.896 166.205 216.2 166.354C214.493 166.719 212.85 167.395 211.144 167.811C210.452 167.981 210.725 169.116 211.42 168.946Z" fill="#161920"/>
<path d="M220.647 166.651C221.096 166.525 221.555 166.419 222.004 166.281C222.451 166.144 222.901 166.006 223.329 165.816C223.705 165.65 224.096 165.491 224.485 165.332C224.874 165.173 225.27 165.036 225.66 164.913C226.347 164.7 225.955 163.599 225.282 163.807C224.87 163.938 224.458 164.071 224.05 164.225C223.645 164.378 223.237 164.531 222.829 164.685C222.422 164.841 222.01 164.987 221.601 165.135C221.188 165.277 220.771 165.402 220.351 165.52C220.009 165.612 219.909 165.935 219.982 166.218C220.049 166.502 220.296 166.745 220.647 166.651Z" fill="#161920"/>
<path d="M229.719 163.639C230.587 163.307 231.474 162.998 232.295 162.564C233.015 162.179 233.782 161.788 234.546 161.506C235.214 161.257 234.772 160.178 234.103 160.424C232.47 161.03 230.937 161.922 229.302 162.549C228.638 162.803 229.05 163.897 229.719 163.639Z" fill="#161920"/>
<path d="M238.535 160.082C239.394 159.731 240.276 159.411 241.09 158.957C241.804 158.558 242.564 158.148 243.32 157.84C243.984 157.568 243.497 156.507 242.845 156.774C241.242 157.427 239.721 158.336 238.096 159C237.435 159.268 237.874 160.351 238.535 160.082Z" fill="#161920"/>
<path d="M247.254 156.193C247.672 155.983 248.094 155.776 248.507 155.556C248.92 155.335 249.326 155.095 249.709 154.829C250.043 154.588 250.393 154.352 250.739 154.111C251.089 153.876 251.445 153.652 251.8 153.445C252.429 153.087 251.797 152.105 251.189 152.45C250.817 152.666 250.446 152.887 250.084 153.122C249.719 153.357 249.353 153.59 248.988 153.825C248.619 154.055 248.255 154.296 247.878 154.516C247.505 154.741 247.124 154.955 246.733 155.151C246.099 155.468 246.607 156.519 247.254 156.193Z" fill="#161920"/>
<path d="M255.461 151.266C256.229 150.743 257.02 150.248 257.723 149.648C258.34 149.121 259.009 148.581 259.7 148.157C260.307 147.788 259.671 146.807 259.057 147.183C257.562 148.101 256.252 149.311 254.804 150.3C254.219 150.698 254.87 151.668 255.461 151.266Z" fill="#161920"/>
<path d="M263.363 145.986C264.131 145.448 264.914 144.922 265.594 144.284C266.19 143.725 266.827 143.141 267.484 142.666C268.063 142.249 267.352 141.324 266.773 141.741C265.357 142.761 264.128 144.03 262.693 145.029C262.406 145.232 262.423 145.57 262.586 145.812C262.75 146.053 263.067 146.193 263.363 145.986Z" fill="#161920"/>
<path d="M270.968 140.267C271.343 139.988 271.717 139.708 272.092 139.429C272.467 139.15 272.818 138.842 273.154 138.517C273.446 138.229 273.75 137.94 274.064 137.657C274.376 137.378 274.69 137.099 275.014 136.85C275.583 136.414 274.835 135.517 274.273 135.946C273.928 136.208 273.6 136.493 273.267 136.773C272.935 137.056 272.61 137.344 272.283 137.638C271.959 137.931 271.636 138.227 271.297 138.506C270.961 138.786 270.623 139.064 270.272 139.327C269.704 139.757 270.392 140.699 270.968 140.267Z" fill="#161920"/>
<path d="M278.382 134.252C278.733 133.944 279.084 133.636 279.432 133.329C279.783 133.019 280.116 132.694 280.423 132.344C280.693 132.036 280.974 131.721 281.263 131.42C281.556 131.12 281.849 130.818 282.153 130.549C282.688 130.074 281.881 129.231 281.351 129.699C281.026 129.987 280.717 130.292 280.403 130.596C280.094 130.901 279.789 131.215 279.488 131.534C279.187 131.853 278.882 132.167 278.569 132.473C278.256 132.779 277.941 133.083 277.613 133.374C277.08 133.843 277.841 134.728 278.382 134.252Z" fill="#161920"/>
<path d="M285.339 127.727C285.99 127.064 286.69 126.434 287.258 125.698C287.759 125.05 288.309 124.389 288.884 123.81C289.392 123.307 288.542 122.505 288.037 123.005C287.424 123.62 286.843 124.272 286.277 124.942C285.71 125.61 285.13 126.27 284.514 126.896C284.266 127.148 284.338 127.479 284.546 127.687C284.752 127.897 285.086 127.982 285.339 127.727Z" fill="#161920"/>
<path d="M291.919 120.837C292.541 120.148 293.204 119.483 293.741 118.726C294.215 118.058 294.732 117.371 295.286 116.775C295.772 116.252 294.893 115.486 294.409 116.005C293.816 116.642 293.267 117.323 292.73 118.018C292.461 118.363 292.185 118.707 291.91 119.049C291.634 119.39 291.351 119.726 291.054 120.05C290.576 120.571 291.433 121.363 291.919 120.837Z" fill="#161920"/>
<path d="M298.214 113.698C298.517 113.346 298.82 112.991 299.124 112.638C299.423 112.28 299.713 111.916 299.968 111.528C300.421 110.846 300.91 110.137 301.441 109.519C301.909 108.979 300.999 108.249 300.536 108.785C299.97 109.443 299.45 110.146 298.936 110.854C298.423 111.564 297.897 112.272 297.331 112.942C296.861 113.476 297.745 114.239 298.214 113.698Z" fill="#161920"/>
<path d="M304.22 106.294C304.502 105.924 304.797 105.559 305.069 105.182C305.344 104.805 305.611 104.421 305.846 104.022C306.05 103.667 306.258 103.3 306.484 102.945C306.705 102.587 306.945 102.244 307.184 101.916C307.612 101.339 306.649 100.678 306.228 101.245C305.972 101.595 305.716 101.947 305.477 102.311C305.236 102.673 305.008 103.046 304.77 103.413L304.053 104.514C303.813 104.881 303.557 105.237 303.292 105.585C302.861 106.148 303.781 106.864 304.22 106.294Z" fill="#161920"/>
<path d="M309.716 98.4843C309.967 98.091 310.221 97.6972 310.475 97.3033C310.722 96.9077 310.945 96.4929 311.143 96.0738C311.313 95.699 311.502 95.3267 311.683 94.9439C311.868 94.5663 312.066 94.1952 312.281 93.8478C312.657 93.2354 311.632 92.6741 311.263 93.2762C311.037 93.6436 310.825 94.0233 310.624 94.4071C310.422 94.791 310.218 95.1782 310.017 95.5649C309.813 95.9522 309.622 96.3459 309.405 96.7267C309.19 97.1069 308.97 97.4854 308.736 97.8574C308.548 98.1576 308.694 98.4654 308.938 98.6254C309.183 98.7791 309.526 98.7879 309.716 98.4843Z" fill="#161920"/>
<path d="M314.444 90.1617C314.661 89.7451 314.854 89.3179 315.057 88.8948C315.25 88.4676 315.447 88.0398 315.579 87.5914C315.701 87.1989 315.83 86.7961 315.972 86.3998C316.119 86.0086 316.265 85.5996 316.419 85.2189C316.555 84.8808 316.342 84.6159 316.066 84.5221C315.79 84.4283 315.453 84.4963 315.323 84.8182C315.166 85.2145 315.008 85.6107 314.851 86.007C314.695 86.4119 314.546 86.8186 314.401 87.2306C314.255 87.6425 314.087 88.0439 313.929 88.4523C313.761 88.8566 313.603 89.2649 313.399 89.6522C313.079 90.2777 314.119 90.8063 314.444 90.1617Z" fill="#161920"/>
<path d="M317.885 81.2119C318.02 80.7779 318.172 80.3348 318.32 79.9373C318.475 79.5295 318.648 79.1242 318.803 78.6984C319.076 77.953 319.437 77.1665 319.826 76.4346C319.997 76.1107 319.813 75.8223 319.548 75.7054C319.282 75.5857 318.947 75.6202 318.783 75.9217C318.384 76.6645 317.99 77.4513 317.639 78.284C317.464 78.7015 317.304 79.1312 317.158 79.5703C317.014 80.018 316.9 80.436 316.766 80.8636C316.558 81.5547 317.676 81.885 317.885 81.2119Z" fill="#161920"/>
<path d="M321.309 72.3301C321.5 71.4114 321.705 70.4812 321.732 69.5341C321.741 69.1154 321.751 68.6846 321.761 68.2537C321.763 67.7824 321.717 67.3593 321.7 66.9456C321.685 66.5856 321.395 66.4316 321.117 66.4522C320.836 66.4732 320.567 66.6781 320.58 67.0265C320.596 67.4523 320.626 67.8724 320.612 68.2322C320.591 68.6502 320.56 69.082 320.529 69.511C320.461 70.37 320.361 71.238 320.185 72.0939C320.033 72.783 321.158 73.0401 321.309 72.3301Z" fill="#161920"/>
<path d="M354.448 62.535L347.489 54.6317L348.268 51.9739C348.42 51.4558 348.092 50.9012 347.539 50.7378L345.157 50.0391C344.643 49.8892 344.114 50.1292 343.918 50.5777L340.654 46.8696L341.263 44.7906C341.426 44.2373 341.106 43.651 340.551 43.4881L338.169 42.7894C337.832 42.6893 337.482 42.7717 337.222 42.9778L333.728 39.0081C334.877 35.0852 335.689 32.3162 335.716 32.2211C336.898 28.187 336.793 20.9575 334.268 20.2173C331.743 19.4742 327.754 25.501 326.572 29.5352C326.545 29.6303 325.733 32.3964 324.584 36.3222L319.499 37.7699C319.391 37.4578 319.144 37.1996 318.804 37.1001L316.422 36.4013C315.869 36.2379 315.284 36.5578 315.121 37.114L314.512 39.193L309.766 40.5456C309.844 40.0627 309.528 39.5747 309.016 39.4214L306.634 38.7226C306.082 38.5592 305.503 38.8508 305.354 39.3684L304.574 42.0261L294.457 44.9088C293.344 45.2254 292.497 46.1325 292.254 47.2651L292.208 47.4808C291.782 49.4826 293.356 51.351 295.398 51.2664L302.895 50.9554C302.907 52.1858 303.154 53.125 303.825 53.3285C304.713 53.5983 305.616 52.4046 306.396 50.8114L312.484 50.559C312.588 51.3308 312.842 51.8727 313.319 52.0177C313.994 52.2206 314.691 51.5314 315.344 50.4398L320.509 50.2241C318.406 57.4053 316.551 63.7317 316.51 63.8747C316.085 65.3272 315.803 67.2682 315.737 69.1946L304.932 72.5489C304.499 72.6832 304.151 73.0053 303.983 73.4246C303.572 74.4457 304.357 75.5512 305.455 75.4984L316.211 74.9672C315.592 78.344 315.086 82.2958 316.084 82.4365C317.063 82.5746 318.694 79.1289 319.938 76.0696L328.686 82.3292C329.583 82.9693 330.84 82.466 331.045 81.3828C331.13 80.9375 331.008 80.478 330.717 80.1322L323.437 71.4601C324.418 69.8042 325.233 68.0155 325.657 66.5659C325.699 66.4229 327.554 60.0965 329.657 52.9152L333.886 55.8915C333.847 57.162 334.062 58.1224 334.737 58.3132C335.215 58.4489 335.723 58.1291 336.226 57.5373L341.211 61.0458C341.006 62.81 341.122 64.2994 342.013 64.5565C342.689 64.7502 343.401 64.094 344.078 63.0638L350.217 67.3847C351.891 68.5618 354.224 67.8422 354.943 65.9279L355.02 65.7212C355.438 64.6238 355.214 63.404 354.448 62.535Z" fill="#161920"/>
<path d="M23.4931 93.2915C22.5568 88.4328 17.8629 85.2522 13.0094 86.1876C8.15596 87.123 4.98034 91.8203 5.91672 96.6789C5.91672 96.6789 5.913 97.1415 6.33879 98.1693C6.55761 98.745 6.83087 99.2922 7.15344 99.8C8.56601 102.263 11.5881 106.315 18.0592 112.39C21.8092 104.345 23.109 99.4604 23.5049 96.6486C23.6157 96.0574 23.6695 95.4501 23.6552 94.832C23.668 93.7167 23.4931 93.2915 23.4931 93.2915ZM15.7304 100.322C12.7865 100.889 9.93988 98.96 9.37192 96.013C8.80396 93.066 10.7298 90.2173 13.6737 89.6499C16.6175 89.0826 19.4642 91.0115 20.0322 93.9585C20.603 96.9049 18.6742 99.7542 15.7304 100.322Z" fill="#161920"/>
<path d="M20.7469 115.766C20.9565 116.853 20.2454 117.905 19.1591 118.114C18.0729 118.324 17.0218 117.612 16.8122 116.524C16.6026 115.437 17.3137 114.385 18.4 114.176C19.4862 113.966 20.5374 114.678 20.7469 115.766Z" fill="#161920"/>
</g>
</svg>
