<svg width="137" height="196" viewBox="0 0 137 196" fill="none" xmlns="http://www.w3.org/2000/svg">
<rect width="137" height="196" fill="#F5F5F5"/>
<g id="01_Tour Booking" clip-path="url(#clip0_0_1)">
<rect width="1920" height="10321" transform="translate(-85 -3312)" fill="white"/>
<g id="Package">
<path id="Vector" fill-rule="evenodd" clip-rule="evenodd" d="M115.73 98.5278C115.159 97.4193 115.999 93.8253 116.772 93.12C116.772 94.0941 116.637 94.9338 116.503 95.8743C116.335 96.8484 116.402 97.8896 115.73 98.5278ZM93.5615 40.9895C93.5279 40.2842 93.6623 39.9147 93.9982 39.3437L93.4608 38.7726L94.8379 38.2688C95.1066 38.9406 95.0395 38.4367 94.8716 38.9742C94.8716 39.0077 94.6028 39.6124 94.5356 39.7467C94.3005 40.2842 93.9982 40.5865 93.5615 40.9895ZM109.92 104.54C109.852 103.533 110.155 103.465 110.222 102.592C110.759 103.398 110.155 103.063 111.028 103.13C111.028 102.088 111.263 101.349 111.465 100.375C111.7 99.099 111.565 98.4943 112.573 97.7553C112.506 98.763 112.036 102.391 111.364 103.163C110.759 103.801 110.591 103.969 109.92 104.54ZM108.173 106.253C108.005 105.447 108.979 101.349 109.886 100.611C109.987 101.349 109.348 104.037 109.113 104.977C108.878 106.018 108.912 105.649 108.173 106.253ZM100.179 114.55C100.179 113.341 99.8763 113.542 100.212 112.367C100.447 111.46 100.682 111.392 100.447 110.318L102.765 108.067L101.959 111.829C101.824 112.4 101.925 112.703 101.623 113.173C101.522 113.106 101.052 113.542 101.589 111.493L101.892 109.948C101.892 109.915 101.858 109.848 101.825 109.814C101.825 109.78 101.791 109.713 101.757 109.679L101.489 109.747C101.489 109.747 101.388 109.78 101.388 109.814C100.75 110.385 101.253 111.896 100.179 114.55ZM97.8946 113.307C97.9953 114.348 97.8274 115.121 97.6594 116.061C97.4243 117.439 97.7266 117.439 96.551 118.312C96.5174 117.439 97.0884 114.785 97.5586 113.844L97.8946 113.307ZM74.4829 58.5567C73.0721 59.3629 74.2478 60.2026 73.0722 61.0759C73.0722 60.1354 73.3744 60.8072 73.2065 59.6988L75.1882 57.5826C75.0539 57.9857 75.1211 58.3551 75.0539 58.7918C74.9196 59.4636 74.9195 59.1948 74.3821 59.7323C74.2813 59.0605 74.4493 59.3293 74.4829 58.5567ZM96.0136 129.631C95.7785 129.967 95.6777 130.203 95.1067 130.37C93.7967 130.774 94.0654 129.699 93.8303 128.691C93.6959 128.154 92.0836 126.306 91.7813 124.728C92.05 124.459 92.4867 124.19 92.8562 124.324C93.2257 124.459 95.1738 126.978 95.3754 127.381L93.9647 127.784L94.9052 129.732C95.6777 129.464 95.8792 129.128 96.5174 128.725L96.0136 129.631ZM90.9752 123.854C90.5385 123.72 90.6057 123.854 90.337 123.552C89.8667 123.048 90.2027 122.611 90.3706 122.242C90.4042 122.343 90.8072 123.283 90.8408 123.317C91.3782 124.089 90.8745 123.753 91.647 123.518L91.1431 121.973C90.3034 121.906 90.7401 122.175 90.2362 121.637C90.7065 121.201 90.9752 120.865 91.9157 120.764C92.1508 121.369 92.0164 121.335 92.1843 121.805L92.3187 122.074C92.3523 122.141 92.386 122.175 92.386 122.208C92.4196 122.276 92.4532 122.309 92.4867 122.376C92.5539 122.544 92.6211 122.779 92.6883 122.981C92.2516 123.417 92.1844 123.653 91.8149 124.022L90.9752 123.854ZM60.4762 37.026C57.4868 38.0673 58.2593 37.1939 56.7814 36.6565C56.1768 36.455 56.3783 36.6901 55.7736 36.2871C56.8821 35.9512 59.8044 36.2199 60.4762 37.026ZM67.5299 64.4348C67.3283 67.1892 67.1268 67.1892 65.4474 68.5327C65.4809 67.9953 65.481 67.4578 65.6154 66.9876C65.9513 65.5432 65.9512 65.8791 66.2871 65.644C66.2871 66.3494 66.1527 66.8197 66.1863 67.4579C67.0261 66.6517 66.3207 65.3753 67.5299 64.4348ZM85.2315 130.841C86.1048 130.203 85.5673 130.27 86.575 129.363L91.0088 125.366C93.3265 127.247 92.5539 133.125 96.2151 130.673L96.9877 129.799C97.1556 129.363 97.0213 129.9 97.0884 129.363C97.29 127.683 96.3831 127.482 94.4685 125.03C93.3265 123.552 93.5952 123.317 93.3265 121.469C94.099 122.242 93.1585 122.04 94.099 122.074C94.6028 121.57 94.9723 121.033 95.5098 120.462L113.211 102.357C120.433 94.9674 119.358 93.12 122.616 102.827L124.8 109.377C125.203 110.754 125.572 112.434 126.076 113.744C127.151 116.532 127.789 119.353 128.562 122.275C129.301 125.097 129.871 127.179 130.812 130.27C131.551 132.688 132.256 136.047 133.163 138.835C133.466 139.742 133.701 140.582 133.936 141.489C134.305 142.899 133.801 142.127 134.003 143.94C134.305 146.695 132.391 149.55 130.812 151.666L126.009 158.619C123.053 163.321 122.012 164.531 118.485 168.864C117.981 169.502 117.847 170.039 117.343 170.61L111.633 177.127C109.617 178.974 111.229 176.925 108.475 180.217C107.535 181.325 104.713 183.71 103.336 184.147C101.321 184.819 97.9618 181.124 96.7525 179.075C94.3005 174.876 93.6287 172.794 92.7218 168.125L90.0347 155.965C86.7765 142.362 86.2391 130.807 79.622 118.043C79.2525 117.338 79.0846 116.532 78.7823 115.927C78.312 114.953 77.0356 114.516 76.0279 114.348C74.6508 114.113 73.6096 114.55 72.434 114.449C72.5012 113.509 74.2814 112.434 75.457 111.93C76.4647 111.493 76.4646 111.325 77.2036 110.788C77.741 110.385 78.4128 110.15 79.0174 109.713C79.7228 109.243 80.1595 109.008 80.8313 108.605L86.8437 103.533C88.6239 101.954 93.8638 97.1172 94.7372 95.337L104.545 83.9166C105.284 83.0432 105.385 83.3119 106.057 82.6402C107.669 80.9943 106.762 81.263 109.684 80.5913C111.23 80.2218 112.304 80.7256 113.178 81.8004C114.588 83.5471 115.395 86.5701 116.167 87.9473C118.35 91.8101 117.477 91.239 116.301 92.549C115.462 93.5231 115.865 93.3886 114.555 93.6909C114.488 94.9337 113.917 95.1018 113.144 95.9416C111.7 97.5202 108.643 101.249 107.299 102.189C106.493 102.794 106.225 103.499 105.486 104.272C104.78 104.977 104.109 105.649 103.403 106.354C102.16 107.53 100.649 109.142 99.4733 110.452C97.7266 112.4 94.9387 114.953 93.5951 116.532C92.9569 117.304 92.386 117.909 91.647 118.648C90.2027 120.092 89.0606 121.268 87.5826 122.712C86.9109 123.35 86.3063 124.022 85.5338 124.627C84.4253 125.534 83.5856 125.87 83.8543 126.844C84.4253 126.642 86.6086 124.627 87.2804 124.056C87.4819 124.459 87.5155 124.761 87.6499 125.03C87.9186 125.567 88.9263 126.105 88.1537 127.079C87.146 128.254 84.0894 129.665 85.2315 130.841ZM98.6335 185.658C97.9617 185.154 97.4915 184.449 97.3236 183.307L98.5999 184.214C99.0366 184.516 99.5404 184.819 99.9771 184.987C99.6412 185.356 99.3389 185.591 98.6335 185.658ZM60.6441 73.1008C59.8044 72.3954 60.1402 71.3206 60.2746 70.548C60.3082 70.548 62.4916 70.2458 62.5587 70.2793C63.6 70.5816 62.7267 71.1527 62.3572 71.6901C63.0626 74.3773 68.0001 75.8887 65.3466 77.8033C63.8687 78.8782 63.8687 77.9041 63.3648 76.5941L61.8533 73.2016C61.3159 72.1267 61.8198 72.1604 60.8793 71.8917C60.5098 72.2276 60.7113 71.8244 60.6441 72.7649C60.6441 72.7985 60.7113 72.8993 60.6441 72.9329C60.6105 72.9665 60.6777 73.0336 60.6441 73.1008ZM57.1173 71.9252C54.6653 70.3129 55.1019 69.574 52.1461 68.8014C51.4743 68.6335 51.5415 68.4991 51.1048 68.0624C50.3658 67.2899 49.8956 67.1891 49.4253 65.8792C48.7871 63.9982 48.6863 62.4866 49.2573 60.8408C49.694 59.5644 49.9292 59.9002 50.6681 58.8925L55.908 53.4176C57.1172 52.2084 58.6287 51.1671 59.8715 49.9579C61.6854 48.2113 65.4474 44.2476 67.2948 42.9377L83.4848 29.5692C85.5337 28.1921 86.5078 27.8898 88.3216 28.9646C89.0942 29.4013 89.5645 29.4013 90.4714 29.9723C91.8821 30.8792 92.4196 31.7525 93.2257 32.5586C93.528 32.8609 93.7295 32.9617 94.1662 33.4991C97.0885 37.1267 96.1144 38.907 97.7267 41.9636C98.5664 43.5759 99.0366 46.0279 99.9771 47.9089C100.918 49.8571 101.69 51.6373 102.664 53.4511C103.538 55.0298 104.646 56.6757 105.486 58.3887C106.964 61.5461 107.703 62.0836 108.374 63.4944C110.759 68.2976 111.834 73.6047 108.811 77.7698L107.333 79.6843C106.762 80.1881 105.62 80.4569 104.276 82.3379C103.672 83.1776 104.176 82.6737 103.806 83.3791L94.7372 93.6239C92.7218 95.6728 90.0011 99.2668 87.8178 100.913C86.6422 101.786 85.3658 103.365 84.0894 104.507C83.1153 105.346 78.7151 108.84 77.5059 109.209C76.4982 109.512 76.0952 110.452 75.0539 110.351C73.2065 109.713 73.7439 108.369 72.9378 106.724C72.4675 105.716 72.4004 105.548 72.0981 104.574C71.6614 103.163 71.4934 103.835 70.9224 102.726C69.5117 100.039 68.2352 96.7141 66.7909 93.859C64.8763 90.0299 58.7967 81.0951 58.4608 77.0979C58.7631 76.8292 59.0318 76.762 59.3677 76.4597C59.8044 76.0903 60.6105 74.8811 61.4502 74.3101C62.0213 75.217 62.3572 75.8552 62.7603 76.93C63.3313 78.4751 63.0289 78.4752 64.171 79.3485C65.4473 79.1133 66.7238 77.9041 66.9253 76.9972C67.4291 74.7803 62.3572 73.3024 64.1374 70.9175L74.3821 60.8072C75.3226 59.8667 76.1959 59.1277 77.1028 58.288C77.909 57.4818 78.5471 56.6421 79.4876 55.7688C80.3945 54.929 81.3351 54.0893 82.2085 53.2496C83.8543 51.5701 85.7689 49.9579 87.5155 48.2784C89.5644 46.2631 91.647 43.9118 93.8303 41.9636C94.4013 41.4598 94.6028 41.0903 95.0395 40.6536C96.4502 39.3772 96.9877 41.1575 95.7449 37.3955L93.9311 37.1268C93.528 37.6978 93.931 37.2947 93.6623 37.765C93.0241 38.8398 93.1585 37.8658 93.1249 38.9406C93.1249 39.1422 93.7967 38.8063 92.8562 39.4445C92.0164 40.0155 92.4867 39.6459 91.8149 40.4185C91.5126 40.7879 90.9081 41.2583 90.6058 41.527L88.4896 43.7439C86.3399 46.6997 84.5933 47.8754 81.9733 50.5961C80.529 52.1076 78.8159 53.6526 77.1364 55.0298C71.9637 59.262 68.0673 63.2256 62.3907 67.7265L57.1173 71.9252ZM60.6777 73.9742C59.9388 74.5788 59.2334 75.62 58.3265 76.3254C58.1585 75.0826 58.2257 74.478 58.1249 73.336C58.0913 72.8321 57.4867 71.8916 59.3341 71.2198C59.5356 72.7313 59.3342 73.4367 60.6777 73.9742ZM97.4579 185.826C96.1479 186.129 96.9541 185.759 95.812 185.457C95.6105 185.39 95.6441 185.423 95.3754 185.39L93.4608 184.852C92.6546 184.449 92.2851 181.796 92.1843 180.889C94.4348 180.049 92.5203 183.811 95.7784 185.222C96.3494 184.986 96.4166 184.785 96.8197 184.483L97.4579 185.826ZM65.5817 114.08C64.742 111.359 62.693 109.411 62.4915 103.23C65.0779 105.951 66.5558 111.292 65.5817 114.08ZM72.837 129.531C72.1317 128.758 71.5606 127.18 71.1911 126.205C70.6872 124.929 68.6048 121.301 67.7986 119.622C65.6489 115.155 66.4886 119.084 65.884 116.901C67.194 117.069 67.2612 117.539 68.5376 117.808C70.0827 118.144 75.1211 119.756 75.9608 121.201C72.9714 122.309 73.0385 120.798 71.1239 121.301C71.8293 122.846 75.5577 123.619 75.1882 125.802C74.1805 126.373 73.6096 124.156 72.434 123.955C72.9378 125.634 73.9119 126.037 74.7516 126.81C77.9426 126.037 74.718 123.35 73.576 122.343C74.9196 122.309 75.0204 122.41 76.4311 121.772C78.0098 120.26 72.837 118.681 72.434 118.547C71.5942 118.245 71.0231 117.808 70.1498 117.539C69.3773 117.304 68.4032 117.304 67.7314 116.834C68.2352 116.431 68.9071 116.767 69.7133 116.834C72.0981 116.968 72.9378 114.718 76.7334 115.994C78.8831 116.7 80.8984 122.04 81.8053 124.257C83.2496 127.851 85.3994 135.98 86.172 140.011C86.4407 141.556 86.8101 143.504 87.146 144.982L90.3034 160.366C90.337 161.844 90.505 163.456 90.6058 165.068C90.8409 168.998 93.1921 176.69 95.3082 180.15C95.7113 180.822 96.383 181.661 96.4166 182.299C96.4502 182.635 96.2151 183.912 95.9128 184.248C93.5616 183.844 95.2074 178.235 91.5798 180.452C91.4118 181.157 91.479 182.367 91.7142 182.904C92.789 185.356 92.5203 184.886 91.479 185.289C89.2621 178.806 86.3399 170.678 83.552 164.363C83.2833 163.725 82.9473 163.187 82.645 162.515C80.2266 156.738 78.2785 150.39 76.2967 144.511C75.3226 141.589 74.1806 138.835 73.2401 136.181C72.1988 133.226 71.0904 130.471 70.0827 127.448C69.2766 125.097 67.2276 120.697 66.8582 119.387C67.362 119.958 69.4109 124.056 69.8812 125.063C70.5865 126.608 71.6278 129.867 72.7698 130.673C74.2813 130.169 74.0463 127.65 73.2737 127.012C73.005 127.448 73.1058 127.818 73.0722 128.355C73.0722 128.825 73.005 129.161 72.837 129.531ZM51.4407 74.1086C50.5338 74.4109 49.5261 74.1421 49.291 73.4367C47.2084 67.0884 48.384 65.7783 48.2161 64.5691C48.6863 65.644 48.3841 66.215 49.3246 67.5586C49.8956 68.3648 50.6681 68.7679 51.2056 69.4732C53.624 72.597 53.7919 71.455 55.1019 72.6978C53.2209 72.7314 53.5232 73.4368 51.4407 74.1086ZM44.8908 43.7774C46.5702 40.7544 47.5779 38.4368 50.9033 35.884C52.8515 34.4061 57.5203 32.8609 59.8715 33.3312C61.0807 33.5999 62.8946 34.6076 63.0962 35.1114C62.8611 36.8245 60.8121 35.3466 59.838 34.9435C58.9647 34.574 56.8821 34.4061 55.6729 34.8427C53.5904 35.6489 50.3323 37.933 48.9215 39.8811C48.4849 40.4521 48.2497 40.9895 47.9474 41.5941C47.5779 42.3667 47.4436 42.4339 47.0069 43.1393C45.9992 44.6508 44.7229 48.5471 44.4206 50.2937C44.2862 51.0663 44.2526 51.7045 44.1518 52.3427C43.9839 53.384 43.4801 53.216 42.4052 53.6191C42.2037 52.242 42.6403 50.6296 42.8083 49.2861C43.077 47.17 43.9503 45.4569 44.8908 43.7774ZM62.29 106.992C61.9205 106.757 62.2228 107.026 61.9205 106.589L60.6777 103.298C58.125 95.4041 51.7765 83.6142 49.7948 74.8811C51.6758 74.9482 51.9445 74.8138 53.5904 73.8062C54.3293 73.3695 56.1768 73.2352 57.1844 73.0337C57.4532 73.6383 57.5875 77.2323 58.1249 78.811C59.3006 82.4387 59.7708 82.9089 61.719 86.2342C63.9695 90.0298 69.4109 100.174 70.6873 103.969C71.3591 105.985 71.2919 106.522 71.7285 108.201C71.9972 109.176 74.0126 111.661 70.788 113.441C68.8063 114.516 69.4781 111.023 69.2093 109.176C68.907 107.127 67.362 101.685 66.4215 99.9051C66.1192 99.334 66.5558 99.5692 65.8504 99.4684C66.7237 103.298 67.8994 103.6 68.2017 109.478L64.8764 102.055C64.171 100.711 63.8351 99.1324 63.2305 97.7217C62.6259 96.2102 60.5769 92.9857 60.7449 90.4329L60.9128 89.761C61.8533 89.8282 61.7526 89.929 62.1557 90.9703L63.6 94.8667C63.8015 95.5721 63.6671 96.143 64.2717 96.2437C64.4061 95.1353 63.2977 92.549 62.8946 91.3734C60.9129 85.5624 58.9647 87.8801 60.0395 91.239C60.5098 92.7169 60.6441 94.0605 61.0808 95.4713C62.5923 100.073 68.4032 108.605 67.5635 112.971C67.4291 113.61 67.3284 113.677 67.1604 114.18C66.9589 114.819 67.2948 114.785 66.3543 114.987C66.1192 114.382 66.8245 111.124 65.8504 108C65.3802 106.556 63.3313 102.088 62.0213 101.988C61.2823 102.928 62.0884 105.85 62.29 106.992ZM71.5606 146.124C70.9224 146.359 68.0674 146.393 67.4964 146.292C65.6154 145.956 65.7497 145.821 64.8092 143.873C63.2305 140.649 63.5328 138.499 62.4915 135.274C61.6854 132.755 59.7708 128.725 59.4349 127.179C59.3677 126.844 59.267 125.87 59.3006 125.534C59.3678 124.425 60.4762 124.257 61.8198 123.216C62.3572 122.813 62.0213 122.679 62.3236 122.611C63.029 122.511 63.3649 124.224 63.7008 125.131C65.481 129.531 70.7209 143 71.5606 146.124ZM59.67 110.284C58.9646 108.101 58.7631 107.395 57.5875 105.548C54.4301 100.51 51.4743 88.048 48.5856 81.3637L44.7229 71.8244C44.2862 70.4473 45.4954 72.1603 44.7564 69.9434C43.4128 65.7784 44.6892 63.3936 46.6374 60.337C47.1748 59.4972 47.7459 58.8254 48.4848 57.9857C51.3735 54.5932 51.7094 55.3657 55.2698 51.4022C56.076 50.5289 56.7813 50.1258 57.6546 49.2524C57.6546 49.3196 57.6211 49.3869 57.5875 49.4205L48.2833 59.7659C46.9398 61.3782 47.074 61.8148 46.6374 62.6881C46.2679 63.3935 45.7977 63.192 45.5626 65.8792C44.8236 73.5039 49.7948 83.4799 52.482 90.6344C54.5645 96.1766 57.1172 101.853 58.931 107.395C60.0059 110.654 61.4503 113.273 62.458 116.196L68.907 132.99C70.5865 137.021 72.2324 141.757 73.9454 145.956C74.4829 147.232 75.1211 148.408 75.6921 149.819C76.8006 152.573 78.0433 155.226 79.1853 158.014C80.3274 160.802 81.503 163.456 82.6786 166.311C83.3168 167.856 85.1642 173.868 86.1047 174.372C84.526 168.36 81.8389 162.986 79.5884 157.443C78.2448 154.152 76.3975 149.987 74.8188 146.359C73.0721 142.429 71.7286 138.23 70.0827 134.233C66.9589 126.474 64.8428 120.697 62.0884 113.005C60.4426 108.437 55.9417 94.7659 54.5981 92.0116C53.5568 89.8283 46.7382 73.4703 46.3351 69.8427C45.9992 66.8196 46.2679 63.2592 48.4176 60.8744C47.5443 64.2669 47.1077 65.4425 47.6451 69.574C48.0146 72.597 49.5933 76.7621 50.5674 79.6508C51.7094 83.1105 53.0529 86.5701 54.3965 89.8618C55.7065 93.0528 57.2516 96.311 58.4944 99.4348C59.8379 102.794 60.98 106.22 62.3907 109.579C63.7343 112.703 64.8091 116.464 66.1527 119.756C67.4291 122.88 68.8399 126.172 70.0827 129.497C70.7209 131.244 71.2919 133.058 71.9973 134.737C74.4157 140.716 72.4004 137.223 73.0722 139.272C74.0799 142.362 76.1624 146.93 77.4724 150.121C78.8159 153.48 79.7564 156.536 81.0328 159.727C83.5856 166.042 86.0712 171.685 88.0866 177.899L90.7065 185.356C90.0011 185.255 89.598 184.651 89.3629 183.912C89.1277 182.971 89.4636 181.46 87.3811 177.966C87.2803 178.134 87.2468 178.302 87.1124 178.537C86.0376 180.989 89.1614 183.509 89.195 185.961C88.0193 185.961 88.0193 185.423 87.6163 184.248L86.5414 181.292C83.9886 173.432 77.8754 158.115 74.1134 150.121C72.8035 147.367 72.5348 147.535 72.9714 146.057C72.2996 145.452 72.5011 146.124 71.9301 144.78C71.6949 144.209 71.4263 143.638 71.2583 143.134C70.8553 141.992 70.6201 140.514 70.2506 139.305L65.6154 126.508C65.2123 125.298 64.6412 124.459 64.2046 123.25C63.8015 122.04 63.3313 120.898 62.9618 119.723L62.3907 117.472C62.2228 117.035 61.9205 116.464 61.719 115.961L59.67 110.284ZM25.1403 9.38206C24.7036 9.75154 24.7709 9.71794 24.1327 9.78512H23.1249L24.435 7.29955C24.838 7.97133 25.2411 8.74387 25.1403 9.38206ZM37.2324 45.5241C37.1988 45.4905 37.1653 45.4569 37.1317 45.3897C36.2248 44.0797 34.5117 39.2429 34.0414 37.7314C32.7986 33.9022 31.791 31.8532 30.649 28.6622C29.339 25.0682 28.4992 23.5903 27.3236 19.5932C26.4838 16.8053 24.6029 14.0174 23.696 10.8936L25.2747 10.5913C26.4503 12.2036 31.0184 24.027 31.791 26.0088C32.0933 26.7477 32.3284 27.4531 32.5971 28.192C33.3361 30.1066 33.672 28.8638 35.1163 33.6335C35.5194 34.9435 36.8965 40.8551 38.1729 41.0567C38.5088 40.5528 38.3409 40.6537 37.9043 39.8475C36.7622 37.7314 34.7804 31.3159 34.1422 29.1662C32.8994 25.2362 30.8505 20.7017 29.7756 16.4358C31.3543 18.0817 33.6719 26.7478 34.7804 29.6028L38.4081 39.5787C39.0127 41.0903 38.6432 40.7544 39.6172 41.8293C38.9119 43.1728 38.5761 43.3072 37.7027 45.2218C37.602 45.3898 37.5683 45.5913 37.5011 45.7256L37.2324 45.5241ZM36.8294 48.7486C37.2996 47.7745 37.9378 46.8004 38.6096 45.8935C40.6921 43.0049 43.7823 38.9406 46.671 36.858C48.2497 35.716 50.3995 34.742 52.2804 34.1038C50.7018 35.9176 45.7977 37.3619 42.4052 47.976C41.8006 49.8235 41.6998 52.8466 41.5319 53.7199C37.837 55.265 37.5012 54.1229 36.0233 54.7275C36.6951 56.2054 36.7286 54.7947 37.3668 55.3657L35.6874 55.6345C35.0828 53.2497 35.8553 50.7976 36.8294 48.7486ZM61.2823 148.744C60.3082 148.677 59.6364 147.77 59.2333 146.896C57.1172 142.496 56.647 134.636 54.9675 130.941C53.9935 128.792 53.1538 127.515 52.2804 125.097L55.5721 124.224C56.9157 125.534 59.5021 133.964 59.8044 135.913C60.5098 140.246 60.4426 141.186 62.3572 145.351C63.6 148.005 63.2305 146.359 64.1038 147.602C62.7267 147.904 62.5251 148.341 61.2823 148.744ZM47.0741 124.66C45.5961 122.343 43.8832 116.397 42.7411 113.509C41.9686 111.527 41.1288 109.747 40.2554 107.899C39.4157 106.153 38.6767 103.936 37.9378 102.088L29.0367 81.3974C28.7679 80.8263 28.9695 80.7256 28.8015 80.0538C28.6 79.0461 28.029 77.9377 27.8275 76.8964C27.6596 76.1239 27.5251 74.8474 27.4243 74.0077C27.2564 72.429 27.5587 70.1449 27.9954 68.9693C29.1374 65.9463 30.6825 65.0394 32.5971 63.36C33.0002 63.0241 33.3361 62.7554 33.6384 62.4531L41.028 55.5336C41.7334 55.1977 43.8495 55.6681 44.79 54.0558C45.2603 53.2832 45.0252 51.335 45.5626 49.1517C45.7641 48.3791 45.9992 47.3379 46.4695 46.6997C46.4023 47.5731 46.1336 47.9089 46.5702 48.6479C47.6451 48.0097 46.7717 48.2112 47.6786 45.692C48.8543 42.501 48.1825 42.837 50.1978 40.0827C50.8024 39.2429 51.5415 38.5375 52.5827 37.8658C53.8591 36.9924 54.6316 36.6565 55.8744 37.0932C56.7141 37.3955 56.479 37.2947 57.2516 37.7985C58.7967 38.8062 59.9387 37.7649 62.4244 37.1939C63.8015 36.8916 64.574 35.9175 64.5069 34.8763C64.1374 34.7083 62.1892 34.2381 61.9205 33.3648C62.3572 33.9358 62.7939 33.5328 63.6 33.3648C64.4061 33.1969 64.6749 33.3984 65.6154 33.1297C67.362 32.6258 68.4368 32.3571 70.0491 32.0212C71.3926 31.7189 71.1911 31.4838 72.0644 31.1479C72.4675 31.0136 73.4417 30.98 73.9119 30.9464C75.2219 30.812 77.1029 29.8043 78.1777 29.9723L68.1681 37.765C66.5894 39.1086 65.1787 40.4185 63.5664 41.8293C62.6595 42.6018 62.1556 43.2401 61.3495 43.979C60.409 44.8188 59.8044 45.1546 59.0318 46.0615C56.9157 48.48 52.6499 51.7717 50.1307 54.526C48.3169 56.5078 44.3533 59.9339 43.2785 62.3187C43.0097 62.9569 43.1442 63.192 42.9426 63.8638C42.2373 66.4502 42.2372 67.1555 42.909 70.2793C44.219 76.1239 46.6374 79.8523 48.2497 84.6891C48.6864 85.9991 49.0223 87.3091 49.5261 88.5855C50.0299 89.8955 50.5673 90.7352 51.0712 92.0452C52.9858 97.0164 54.7324 101.92 56.4119 107.127C57.1508 109.377 58.1921 112.4 59.1326 114.651C60.2074 117.237 60.7113 116.633 62.1221 121.369C61.0472 122.108 59.5021 121.94 58.4272 122.376C57.1508 122.914 52.0117 124.324 50.6681 124.459C49.123 124.627 50.265 123.955 47.5107 124.559L47.0741 124.66ZM69.4445 179.881C69.075 178.705 68.3696 177.295 67.8658 176.018C67.3955 174.742 67.026 173.969 66.4886 172.592C65.313 169.569 61.719 159.828 60.6777 157.578C60.2411 156.637 57.789 151.162 57.7554 150.692C58.2592 150.155 59.7372 150.188 61.719 149.416C65.3802 148.038 64.574 148.777 67.7314 148.072C68.6719 147.87 69.2429 147.501 70.1498 147.333C71.7285 147.031 71.9301 147.031 72.1652 147.467L75.1211 156.671C76.1959 159.761 77.6403 162.952 78.8159 165.874C80.1259 169.099 81.0328 172.122 82.1412 175.279L84.6604 181.896C84.8955 182.501 85.3994 183.274 85.6009 183.912L86.2055 185.793C85.1978 185.994 84.3917 185.86 83.3505 185.927C75.9273 186.464 82.2084 184.953 74.8188 187.304C75.86 186.901 75.289 187.035 75.457 186.767C71.2583 187.875 71.863 187.103 70.8553 184.113L69.4445 179.881ZM35.9224 48.7486C35.6537 49.8235 34.5789 50.4617 33.8399 51.3014L27.0549 57.952L26.8198 57.1123L30.481 53.8206C30.9176 53.384 31.0185 53.1489 31.4887 52.7794C32.2277 52.2084 32.1269 52.2084 32.5971 51.6374C32.8994 51.2679 33.2689 50.9656 33.6384 50.5961C34.7132 49.5212 35.1834 48.715 35.9224 48.7486ZM20.1355 6.79573C19.934 8.4416 18.8592 6.86291 15.7354 9.11339C14.291 10.1547 13.3505 11.3302 11.5367 12.2035L10.9993 10.7592C12.7459 9.51643 15.2315 8.97897 16.3736 8.30718C16.8102 8.07206 17.4484 7.53467 17.8515 7.40031C18.5233 7.16518 17.9522 7.73625 18.9935 7.13164C19.7661 6.72857 19.2958 6.8965 20.1355 6.79573ZM51.8438 126.306C52.6499 127.885 54.0607 130.303 54.5981 131.882C55.8409 135.308 56.5799 140.884 57.5204 144.579C58.2929 147.568 59.7372 148.072 59.0654 148.912C58.7967 149.214 58.0913 149.516 57.6546 149.483C56.7813 149.416 56.5126 147.803 56.1096 146.93L47.7123 126.004L48.9887 125.567C49.4253 125.534 49.694 125.567 50.0299 125.668C50.5338 125.836 50.433 125.937 50.9033 126.105C51.6422 126.373 52.0789 126.004 51.743 126.306C51.6758 126.306 51.8102 126.273 51.8438 126.306ZM20.1019 46.6661C18.5904 42.0308 16.4743 37.2947 15.1643 32.7266C14.4253 30.1738 12.981 27.9905 12.3428 25.8408C11.5703 23.0864 11.1336 23.9934 11.5031 22.9521C11.7718 22.1124 12.0405 22.6834 11.6038 21.6086C11.4023 21.1047 10.9321 20.3658 10.8314 20.0299C9.4542 15.7976 9.4206 15.0922 12.0741 13.5471C13.888 12.4722 19.3294 8.17287 21.1097 10.4569C22.0837 11.6997 20.8409 10.9607 22.5876 11.4646C23.293 15.2602 25.2411 19.0894 26.6182 22.4147C28.1633 26.2439 29.4398 29.6699 30.7497 33.7006C32.0261 37.4626 33.9743 41.93 35.3178 45.692C35.7545 46.9348 35.2171 46.8677 34.1758 47.6402C33.8399 47.9089 29.2382 52.9473 27.1893 54.5596C25.3083 56.0039 24.5693 57.4147 23.7631 56.4742L21.8821 51.7381C21.2775 49.5548 20.5386 48.0769 20.1019 46.6661ZM9.95801 21.978C9.01751 21.3398 7.80829 17.8465 7.64034 16.4022C7.30445 13.2112 8.61437 14.051 9.05103 13.0433C9.35334 12.3715 8.91675 12.741 9.01751 12.1028L10.1259 11.4311C10.8985 14.5549 6.43115 13.715 8.91675 19.3244C9.18546 19.929 10.0252 21.3734 9.95801 21.978ZM2.0309 17.9809C1.82936 17.074 1.59428 16.1335 1.86299 15.3946C2.06453 14.8571 2.23249 14.9579 2.40043 14.4204C2.8035 13.0769 2.53474 12.17 5.28906 10.121C7.40518 8.54233 12.0741 6.19105 14.5933 5.14979C17.6835 3.90699 21.1768 1.21992 24.6029 1.65658C25.1067 2.89938 24.67 2.73144 24.5021 3.33604C25.2075 3.73911 25.4762 3.10088 26.1816 5.08264C26.4839 5.95596 26.8534 6.62775 27.0885 7.60184L25.98 8.1729C25.2411 5.38499 23.9983 2.32838 20.3034 4.71321C17.5827 6.52703 16.3735 7.36669 13.0818 8.84462C10.8313 9.8523 7.37159 11.7333 7.06928 13.9166C6.33032 18.8878 8.41291 19.8619 8.91675 22.6498C3.94555 24.2621 5.49058 23.2209 3.07216 20.3658C2.56832 19.7612 2.23243 18.8206 2.0309 17.9809ZM19.0607 62.2179C19.2958 59.9003 15.601 51.6374 14.5933 48.48C14.0559 46.8005 13.7871 45.4905 13.1489 43.979C11.9061 40.9224 10.7641 37.7649 9.52133 34.7755C8.84955 33.1632 6.06167 26.6806 6.2968 25.4042C7.10294 25.2362 6.66627 24.9339 7.23729 25.8072L8.64798 29.2333C9.08464 29.9723 9.28616 29.502 9.89076 31.1479C11.1 34.3725 10.8649 34.1709 12.6116 38.0673C13.2498 39.5116 13.7535 41.0903 14.3246 42.5346C15.0635 44.4156 21.1768 61.3446 21.1768 61.8149L19.0607 62.2179ZM20.7065 97.8896C18.4224 92.0115 14.291 82.2035 14.8284 76.2246C15.4666 69.3388 18.4896 68.2304 19.0607 67.0883C19.6989 67.1219 19.4301 67.4243 20.0012 67.3907C20.4714 66.8533 21.3783 65.7783 21.8821 65.4089C24.267 63.595 22.7555 64.9722 23.7296 63.5279C23.9647 63.192 24.4685 62.8225 24.8044 62.5202C25.1739 62.1508 25.3418 61.882 25.6777 61.5461C27.6259 59.3964 33.0674 54.8283 33.4368 54.0558C33.9071 53.0817 33.3025 52.8801 34.6796 51.9397C34.9147 52.6786 34.6796 53.4175 34.6796 54.1901C34.6796 55.4665 34.6125 55.1978 34.3773 55.7353C34.2094 56.0376 34.243 55.6009 34.2094 56.1383C35.6874 57.5491 37.1316 55.6344 39.1806 56.1718C37.9042 57.549 38.7775 55.6681 37.6355 57.0788L32.7651 62.2851C31.2872 63.5951 27.4244 66.383 26.887 68.835C25.9465 73.2688 26.316 76.3926 28.2306 80.6584C29.4062 83.2784 30.5817 86.0662 31.7238 88.7198C32.9666 91.6085 36.2584 98.4944 37.1317 101.014C38.8111 105.817 40.4235 108.84 42.1029 113.307C43.2114 116.196 44.1518 119.152 45.3275 122.007C46.4359 124.795 47.7458 127.348 48.8543 130.203C49.9627 132.991 50.9033 135.241 52.1461 138.163C53.3217 140.951 54.2958 143.806 55.4042 146.527C57.7219 152.036 60.241 157.477 62.29 163.154C63.2976 165.908 64.5069 168.83 65.5817 171.652C68.8399 180.284 68.907 179.411 71.0903 187.539C70.1162 186.733 70.1163 185.255 69.6125 184.113C68.9071 184.147 69.1086 184.483 68.6048 183.979L66.2871 181.124C62.2228 176.824 64.2718 178.94 60.8457 176.421C59.67 175.514 59.6028 175.884 57.8898 174.809L54.9004 173.331C54.195 172.995 53.4224 172.626 52.7506 172.29C50.0971 170.845 48.72 165.841 47.0069 163.288C45.1595 160.5 45.8984 162.045 44.4541 158.35C44.1182 157.51 43.48 157.04 43.1777 155.865C42.2036 151.7 40.5578 149.449 39.1134 145.351C38.7439 144.343 38.6096 144.176 38.1729 143.37L35.4186 136.752C35.0491 135.913 34.8476 135.073 34.5117 134.233C34.1422 133.259 33.9071 133.058 33.5376 132.251C33.0338 131.076 32.362 129.564 31.7574 128.254C30.7161 125.903 27.9954 118.782 27.1557 115.894C25.7113 110.889 20.9081 99.7706 20.7737 98.7966C20.7402 98.4271 20.908 98.427 20.7065 97.8896ZM62.3236 181.594C62.7267 181.191 62.7602 181.896 62.5923 181.09C62.4579 180.385 58.1585 177.664 57.386 177.328C52.4148 175.212 52.8514 177.731 51.1048 173.23L52.5491 173.936C56.7814 175.581 53.7247 173.465 59.3677 176.556C60.2746 177.06 60.9465 177.765 61.719 178.369C63.9359 180.082 68.4368 186.196 68.7055 189.723C67.933 190.092 67.3284 189.79 66.3879 189.857C65.2794 186.666 66.0184 188.211 64.5069 185.155C62.8274 181.661 63.1297 183.005 62.3236 181.594ZM52.6499 189.286C51.9109 187.875 51.5751 186.364 51.743 184.886C51.8102 184.315 52.9186 182.199 53.6911 181.796C57.789 179.579 58.1921 182.568 59.8715 185.692C60.6777 187.203 60.4426 188.883 60.8457 189.622C61.0808 189.991 61.2151 189.152 61.0472 190.428C61.0472 190.562 60.8792 191.234 60.812 191.402C60.1402 193.552 55.9081 192.712 55.3371 192.443C53.9935 191.772 53.5568 191.033 52.6499 189.286ZM58.2928 193.686C56.4454 194.19 55.1691 193.686 53.9263 193.014C48.0818 189.756 49.0894 182.803 51.2727 181.393C52.8514 180.385 53.1873 179.377 55.3706 179.679C57.1508 179.948 57.8563 180.418 59.0991 181.594C61.3495 183.744 61.9205 185.054 62.5587 188.177C62.7939 189.286 62.8946 189.521 61.9877 190.126C61.7861 189.084 62.6595 188.681 61.2487 185.961C60.8792 185.255 60.4761 184.819 60.1738 184.147C59.3677 182.4 58.0242 180.217 56.0088 180.318C49.7948 180.654 50.3658 187.573 52.0117 189.991C52.4483 190.63 52.7507 190.965 53.1873 191.704C54.3965 193.787 56.9493 193.384 58.2928 193.686ZM42.9762 158.854C44.7564 164.363 41.5991 159.828 47.0069 170.678C47.5779 171.853 48.1154 173.197 48.5856 174.44C49.0223 175.548 49.7612 177.866 50.4666 178.403C45.5626 181.762 46.503 190.999 50.2315 193.787C51.743 194.929 53.7583 195.668 55.6057 195.836C58.8639 196.138 64.2045 194.56 65.313 191.301C66.8917 191.402 67.4964 191.503 69.2766 191.167C70.5866 190.898 69.9819 191.503 70.6873 190.562C72.5011 188.245 71.6614 189.42 74.5165 188.816L82.7123 187.707C85.5002 187.539 87.9522 187.271 90.6058 187.304C91.8821 187.304 92.7218 185.994 93.6959 186.699C95.1738 187.808 97.9954 187.774 99.7084 187.808C101.186 187.842 101.153 187.439 101.992 186.868C104.243 185.322 105.62 184.919 107.602 182.669C109.113 180.989 112.674 177.899 113.917 176.354L121.105 167.957C123.993 164.531 128.897 157.947 130.913 154.017C131.954 151.968 134.204 148.844 135.548 146.829C136.186 145.922 136.052 145.822 136.321 144.881C136.589 143.907 136.959 144.041 136.421 142.731C134.742 138.801 133.768 135.677 132.458 131.479C131.719 129.094 131.349 127.045 130.61 124.795L127.554 114.785C127.016 112.87 126.781 111.225 126.143 109.444L122.952 100.107C122.448 98.3935 118.72 89.7611 117.813 87.8129C117.208 86.5701 114.152 80.1546 113.514 79.3485C112.875 78.5423 112.271 78.2064 111.297 77.9041C111.8 76.8964 111.901 75.6872 112.271 74.6124C112.909 72.8657 112.909 72.2611 112.17 70.0107C110.692 65.4761 107.669 60.8072 105.788 56.3398C105.284 55.1978 104.814 54.0893 104.243 52.9473C101.186 47.2371 101.22 46.0951 99.3054 40.1834C97.8274 35.6489 95.2074 30.9464 91.3782 28.3936C89.7324 27.2851 89.6988 27.5875 87.8178 27.0836C86.7765 26.8149 86.8773 25.7065 85.5674 25.908C85.0635 25.9752 85.2315 26.0087 84.9292 26.1767C84.4589 26.4454 85.0299 26.2438 84.5933 26.3782C84.0558 26.5461 84.0894 26.2439 83.552 26.3447C83.1153 26.3783 83.2497 26.479 82.7123 26.5797C82.242 26.6805 81.5702 26.5461 80.932 26.6805C79.4541 26.9828 80.6297 27.453 79.4876 27.8225L63.4656 31.8533C60.4762 32.3571 58.9311 30.1738 54.4637 31.954L50.7689 33.3648C47.1413 34.5068 45.0923 35.2457 42.338 37.8993C41.6326 38.6047 41.1288 39.3772 40.4906 40.0154C39.2814 38.8062 38.7439 36.0519 38.1729 34.2381C36.8965 30.2745 35.2507 26.479 34.0079 22.5155C33.7056 21.5078 33.3361 20.5337 32.9666 19.5261C32.0261 16.9733 33.2017 16.9397 29.8764 10.4569C28.3313 7.43391 29.339 8.00488 29.171 6.62772C29.1375 6.22465 28.6672 5.75443 28.5665 5.18341C28.1298 3.26882 27.2229 0.413743 25.3083 0.0442614C24.435 -0.123685 21.2775 0.212253 20.4042 0.615323C16.5079 2.42914 14.8956 2.93297 10.8649 5.0155C5.08753 8.00494 5.69212 7.56821 1.3927 11.7669C0.620144 12.5058 0.485799 12.5394 0.250675 13.5471C-0.790591 18.0145 1.66148 20.6344 3.03864 24.7995C3.4753 26.1767 3.44173 24.598 4.21428 26.1767C8.48011 34.977 11.2343 44.6171 14.9291 53.4511C15.9032 55.7016 16.6758 58.3216 17.3476 60.7064C17.7171 62.0835 17.1797 61.6805 17.2133 62.6546C17.2805 64.7707 18.0865 63.1584 15.7689 65.9799C14.1566 67.9281 12.242 69.4061 11.5702 71.9924C10.4282 76.359 12.5108 83.2448 13.8544 87.3762C14.5597 89.5595 16.7431 93.691 17.8515 95.8407C19.3294 98.7294 21.4455 103.701 22.4196 106.992C22.6211 107.698 22.6547 108.235 22.9234 109.041C24.0654 112.367 25.1068 115.625 26.4503 118.916C27.0885 120.462 27.1893 121.301 27.9954 122.914C29.339 125.634 30.5482 128.825 31.791 131.781C32.4628 133.326 32.9667 135.006 33.6049 136.45C34.1087 137.559 35.1835 139.809 35.553 140.85C37.5347 146.695 40.9608 152.674 42.9762 158.854Z" fill="black" fill-opacity="0.1"/>
</g>
</g>
<defs>
<clipPath id="clip0_0_1">
<rect width="1920" height="10321" fill="white" transform="translate(-85 -3312)"/>
</clipPath>
</defs>
</svg>
